<svg width="320" height="320" viewBox="0 0 320 320" fill="none" xmlns="http://www.w3.org/2000/svg">
<path fill-rule="evenodd" clip-rule="evenodd" d="M52.342 160C52.342 101.202 100.21 52.9323 160 52.9323C187.228 52.9323 211.983 62.9425 230.871 79.3985H298.258C270.456 31.8238 218.813 0 160 0C71.9667 0 0 71.3006 0 160C0 248.699 71.9667 320 160 320C218.813 320 270.456 288.176 298.258 240.601H230.871C211.983 257.058 187.228 267.068 160 267.068C100.21 267.068 52.342 218.798 52.342 160Z" fill="#EFE2C3"/>
<path d="M189.74 149.173V105.263H309.294C314.773 122.357 316.635 131.972 317.026 149.173H189.74Z" fill="#EFE2C3"/>
<path d="M189.145 170.827V214.737H308.699C314.179 197.643 316.04 188.028 316.431 170.827H189.145Z" fill="#EFE2C3"/>
</svg>
