<svg width="364" height="160" viewBox="0 0 364 160" fill="none" xmlns="http://www.w3.org/2000/svg">
<path d="M196.534 2.79225C196.995 2.20497 196.673 1.33907 195.937 1.20986C191.411 0.414685 186.754 0 182 0C150.556 0 123.349 18.1412 110.274 44.5283C109.931 45.2212 108.961 45.3015 108.505 44.6767C97.594 29.7191 79.932 20 60 20C26.8629 20 0 46.8629 0 80C0 113.137 26.8629 140 60 140C79.4929 140 96.8147 130.704 107.774 116.304C107.846 116.201 107.921 116.1 108 116L108.208 115.728C108.646 115.137 109.074 114.538 109.491 113.93C109.502 113.915 109.525 113.917 109.533 113.934C109.54 113.95 109.562 113.952 109.573 113.938L120.397 99.7499C120.681 99.3772 120.667 98.8582 120.376 98.4904C117.009 94.2314 115 88.8504 115 83C115 69.1929 126.193 58 140 58C143.708 58 147.227 58.8071 150.391 60.2553C150.823 60.4527 151.336 60.3387 151.629 59.9658L196.534 2.79225Z" fill="#55BD1D"/>
<path fill-rule="evenodd" clip-rule="evenodd" d="M210.649 5.28259C210.123 5.08088 209.544 5.36652 209.275 5.86118C209.116 6.15309 208.931 6.43571 208.719 6.7058L160.746 67.7861C160.47 68.1368 160.462 68.6265 160.712 68.9958C163.419 72.991 165 77.8109 165 83C165 96.8071 153.807 108 140 108C136.94 108 134.009 107.45 131.299 106.444C130.881 106.289 130.408 106.413 130.132 106.764L117.219 123.206L116.269 124.295C115.97 124.637 115.94 125.138 116.198 125.512C130.64 146.351 154.726 160 182 160C213.444 160 240.651 141.859 253.726 115.472C254.069 114.779 255.039 114.699 255.495 115.323C266.406 130.281 284.068 140 304 140C337.137 140 364 113.137 364 80C364 46.8629 337.137 20 304 20C284.068 20 266.406 29.7191 255.495 44.6767C255.039 45.3015 254.07 45.2218 253.726 44.5289C244.849 26.6134 229.458 12.499 210.649 5.28259ZM224 98C232.284 98 239 91.2843 239 83C239 74.7157 232.284 68 224 68C215.716 68 209 74.7157 209 83C209 91.2843 215.716 98 224 98ZM182.866 87.5C182.481 86.8333 181.519 86.8333 181.134 87.5L165.04 115.375C164.592 116.151 165.318 117.083 166.185 116.856C178.576 113.613 186.082 113.653 197.787 116.824C198.657 117.06 199.392 116.123 198.941 115.343L182.866 87.5Z" fill="#55BD1D"/>
</svg>
