<svg width="358" height="322" viewBox="0 0 358 322" fill="none" xmlns="http://www.w3.org/2000/svg">
<path d="M116.543 45.518L115.97 46.2555L116.666 46.8779L156.469 82.4271L157.126 83.0141L157.791 82.436C168.706 72.9481 182.959 67.2056 198.555 67.2056C216.015 67.2056 231.792 74.4034 243.087 85.9972L243.763 86.6908L244.478 86.0378L278.18 55.257L282.917 60.4469L249.797 90.6963L249.54 90.4144L248.006 91.6953C255.99 102.156 260.731 115.224 260.731 129.402C260.731 137.456 259.201 145.15 256.417 152.212L256.052 153.137L256.976 153.507L304.226 172.413L304.009 172.956L305.793 173.844C310.624 165.842 319.398 160.495 329.42 160.495C344.652 160.495 357 172.847 357 188.084C357 203.321 344.652 215.673 329.42 215.673C314.189 215.673 301.84 203.321 301.84 188.084C301.84 185.426 302.216 182.857 302.916 180.427L303.167 179.558L302.327 179.222L253.803 159.807L252.995 159.483L252.563 160.239C241.849 178.975 221.675 191.598 198.555 191.598C194.586 191.598 190.704 191.226 186.943 190.516L186.531 192.472L188.213 192.863L173.623 255.616L166.781 254.024L181.37 191.272L181.416 191.282L181.91 189.345C161.733 183.751 145.677 168.234 139.325 148.377L139.018 147.419L138.061 147.731L65.8002 171.363L65.0617 171.604L65.1132 172.379C65.1607 173.094 65.1849 173.815 65.1849 174.542C65.1849 192.272 50.8163 206.645 33.0924 206.645C15.3686 206.645 1 192.272 1 174.542C1 156.812 15.3686 142.439 33.0924 142.439C47.031 142.439 58.8968 151.329 63.3277 163.753L63.6549 164.67L64.5805 164.368L136.553 140.831L137.37 140.563L137.229 139.716C136.669 136.362 136.378 132.916 136.378 129.402C136.378 113.854 142.08 99.6405 151.508 88.7364L152.151 87.992L151.417 87.3365L111.375 51.573L110.795 51.0551L110.15 51.4895C105.755 54.4498 100.463 56.1776 94.7647 56.1776C79.5331 56.1776 67.1849 43.8259 67.1849 28.5888C67.1849 13.3516 79.5331 1 94.7647 1C109.996 1 122.345 13.3516 122.345 28.5888C122.345 34.9708 120.179 40.8442 116.543 45.518ZM329.924 37.6168C329.924 52.854 317.576 65.2056 302.345 65.2056C287.113 65.2056 274.765 52.854 274.765 37.6168C274.765 22.3797 287.113 10.028 302.345 10.028C317.576 10.028 329.924 22.3797 329.924 37.6168ZM194.546 288.897C194.546 306.627 180.178 321 162.454 321C144.73 321 130.361 306.627 130.361 288.897C130.361 271.167 144.73 256.794 162.454 256.794C180.178 256.794 194.546 271.167 194.546 288.897Z" fill="#EFE2C3" stroke="#EFE2C3" stroke-width="2"/>
</svg>
