<svg width="541" height="540" viewBox="0 0 541 540" fill="none" xmlns="http://www.w3.org/2000/svg">
<path d="M214.93 0C228.87 3.47 246.62 7.77 264.3 12.32C321.75 27.1 379.18 41.93 436.6 56.81C457.53 62.23 471.87 74.85 477.83 95.97C497.9 167.13 517.91 238.31 537.77 309.53C543.97 331.77 537.44 350.75 521.65 366.95C472.69 417.19 423.4 467.1 374.9 517.78C355.25 538.31 333.58 543.74 306.21 536.29C238.92 517.97 171.24 501.09 103.74 483.56C82.3899 478.02 68.1099 464.98 62.0799 443.45C42.1999 372.53 22.3199 301.61 2.42994 230.69C-3.40006 209.91 1.30995 191.23 15.9599 176.05C67.4999 122.62 119.48 69.62 171.48 16.64C182.14 5.77 195.47 0.18 214.93 0ZM390.83 339.79C350.49 269.58 310.63 200.21 270 129.51C229.33 200.3 189.46 269.69 149.18 339.79H390.83Z" fill="#EFE2C3"/>
</svg>
