<svg width="381" height="381" viewBox="0 0 381 381" fill="none" xmlns="http://www.w3.org/2000/svg">
<g clip-path="url(#clip0_32_86)">
<path d="M144.78 5.56617L149.066 22.8898C132.205 27.0358 116.068 33.7094 101.203 42.6839L92.0353 27.3844C108.416 17.4927 126.199 10.1367 144.78 5.56617ZM231.934 22.8898C248.795 27.0358 264.932 33.7094 279.797 42.6839L289.024 27.3844C272.624 17.4891 254.821 10.133 236.22 5.56617L231.934 22.8898ZM27.3844 92.0279C17.494 108.406 10.138 126.186 5.56617 144.765L22.8898 149.051C27.0359 132.192 33.7095 116.058 42.6839 101.196L27.3844 92.0279ZM19.7941 164.619L2.14312 161.94C-0.714375 180.863 -0.714375 200.107 2.14312 219.03L19.7941 216.351C17.212 199.204 17.212 181.766 19.7941 164.619ZM279.797 338.286C264.95 347.254 248.834 353.928 231.993 358.08L236.28 375.404C254.841 370.829 272.603 363.473 288.965 353.586L279.797 338.286ZM361.206 216.351L378.857 219.03C381.714 200.107 381.714 180.863 378.857 161.94L361.206 164.619C363.788 181.727 363.788 199.244 361.206 216.351ZM358.11 231.919C353.964 248.778 347.291 264.913 338.316 279.775L353.616 289.002C363.51 272.604 370.866 254.804 375.434 236.205L358.11 231.919ZM216.366 361.206C199.219 363.788 181.781 363.788 164.634 361.206L161.955 378.857C180.878 381.714 200.122 381.714 219.045 378.857L216.366 361.206ZM329.476 292.901C319.178 306.844 306.847 319.163 292.894 329.446L303.49 343.823C318.884 332.508 332.49 318.945 343.852 303.587L329.476 292.901ZM292.894 51.5243C306.849 61.8163 319.181 74.1452 329.476 88.0988L343.852 77.3832C332.526 62.0337 318.961 48.4708 303.609 37.1475L292.894 51.5243ZM51.5243 88.0988C61.8192 74.1452 74.1506 61.8163 88.1063 51.5243L77.3906 37.1475C62.0391 48.4708 48.4736 62.0337 37.1475 77.3832L51.5243 88.0988ZM338.316 101.196C347.283 116.04 353.956 132.154 358.11 148.992L375.434 144.706C370.854 126.148 363.498 108.389 353.616 92.0279L338.316 101.196ZM164.634 19.7941C181.779 17.212 199.221 17.212 216.366 19.7941L219.045 2.14312C200.122 -0.714375 180.878 -0.714375 161.955 2.14312L164.634 19.7941ZM60.6921 348.555L23.8125 357.158L32.4148 320.286L15.0316 316.208L6.42937 353.08C3.4156 365.953 15.0168 377.555 27.8904 374.541L64.7402 366.087L60.6921 348.555ZM18.7523 300.283L36.1355 304.331L42.0886 278.763C33.4141 264.18 26.9445 248.395 22.8898 231.919L5.56617 236.205C9.45059 251.981 15.3516 267.199 23.1279 281.471L18.7523 300.283ZM76.5274 344.924L80.5755 362.307L99.3874 357.932C113.661 365.707 128.878 371.61 144.661 375.493L148.947 358.17C132.503 354.069 116.755 347.559 102.215 338.852L76.5274 344.924ZM55.0887 115.662C27.8606 164.961 29.5647 225.155 59.5312 272.839L44.6484 336.322L108.139 321.446C163.83 356.518 235.602 352.537 287.082 311.527C338.554 270.525 358.46 201.454 336.716 139.34C292.596 13.3573 119.234 -0.476261 55.0887 115.662Z" fill="#EFE2C3"/>
</g>
<defs>
<clipPath id="clip0_32_86">
<rect width="381" height="381" fill="white"/>
</clipPath>
</defs>
</svg>
