<svg width="320" height="192" viewBox="0 0 320 192" fill="none" xmlns="http://www.w3.org/2000/svg">
<path d="M180.396 14.3473L175.297 34.6023C182.521 20.255 194.208 9.49453 207.594 0C197.82 11.1824 188.895 22.3649 183.583 33.7583C192.72 20.888 205.044 13.9253 218.856 9.07256C200.37 25.3187 185.708 43.0419 174.659 60.554L165.735 56.7562C167.222 42.6199 172.534 28.2726 180.396 14.3473Z" fill="#EFE2C3"/>
<path d="M173.598 59.7104L179.76 62.8753C179.123 66.8841 179.973 75.7456 184.01 77.8555C201.858 88.827 218.432 100.642 225.019 112.669C248.392 154.656 208.658 193.689 174.023 189.891C192.722 176.177 198.246 147.904 191.234 116.889C188.472 104.862 184.01 93.8907 176.148 81.4424C172.748 75.7456 174.023 68.15 173.598 59.7104Z" fill="#EFE2C3"/>
<path d="M166.796 79.7549C165.521 86.2956 164.033 98.111 158.296 102.542C155.959 104.23 153.409 105.918 150.859 107.605C140.448 114.568 130.249 121.109 125.574 137.777C124.512 141.364 125.361 145.162 126.211 148.748C128.761 159.087 135.986 170.058 141.723 176.599C141.723 176.81 142.785 177.654 142.785 177.865C147.46 183.351 148.947 185.039 166.796 189.047L166.371 190.946C155.534 188.203 146.822 185.461 141.085 179.131C141.085 178.92 140.023 178.076 140.023 178.076C134.073 171.324 126.636 159.931 124.087 149.17C123.024 144.951 122.174 141.575 123.449 137.144C128.336 119.843 138.96 112.88 149.584 105.707C151.922 104.23 154.897 102.753 157.234 100.854C162.121 97.689 164.458 87.7725 166.796 79.7549Z" fill="#EFE2C3"/>
<path d="M171.473 107.184C171.686 114.568 170.836 118.366 172.748 123.641C173.81 126.806 177.848 131.025 178.91 135.245C180.397 140.731 182.097 146.85 182.097 150.647C182.097 154.867 181.885 162.885 179.972 171.324C178.485 178.287 175.298 184.406 169.773 187.782C164.036 186.727 157.449 184.617 153.625 181.241C145.975 174.7 139.388 163.729 138.538 154.234C137.901 146.428 145.125 134.823 155.324 129.126C163.824 124.063 165.949 118.577 167.861 109.293C165.311 117.311 162.761 123.852 154.474 128.283C142.363 134.612 136.201 144.951 136.838 155.078C137.688 167.949 142.788 176.599 152.987 183.562C157.237 186.516 165.311 189.68 170.411 190.524V189.891C174.235 189.259 179.122 182.929 181.672 174.7C183.797 167.105 184.647 157.61 184.435 151.491C184.222 147.905 182.735 140.309 179.76 133.346C178.273 129.548 175.723 125.751 174.235 123.008C172.323 119.843 172.323 113.935 171.473 107.184Z" fill="#EFE2C3"/>
<path d="M170.195 136.089C170.408 141.152 172.32 147.482 173.17 154.023C173.807 158.875 173.595 163.728 173.382 167.948C173.17 172.801 171.683 181.662 169.345 186.093C167.22 185.038 166.371 183.983 164.883 182.295C163.183 179.974 161.908 177.443 160.846 174.7C159.996 172.59 158.934 170.058 158.509 167.315C157.871 163.095 158.084 156.344 162.971 149.592C166.796 144.106 167.645 143.684 168.92 137.566C167.22 143.051 165.946 143.684 161.908 148.326C157.446 153.39 156.809 160.985 156.809 167.104C156.809 169.636 157.871 172.59 158.934 175.122C159.996 177.865 161.058 180.818 162.546 182.928C164.883 186.304 167.858 188.414 169.345 188.625V188.414C172.108 185.249 173.807 182.295 174.445 179.13C175.082 175.333 175.295 171.746 175.72 167.315C176.145 163.517 175.932 158.665 174.87 153.601C173.595 147.271 171.258 140.73 170.195 136.089Z" fill="#EFE2C3"/>
<path d="M171.045 73.8477C171.257 81.2323 171.682 94.9466 173.807 100.432C174.445 102.331 179.757 110.349 183.369 120.265C185.919 127.017 186.556 133.347 186.981 135.246C188.681 143.263 186.556 156.978 183.794 169.848C182.307 176.811 177.419 185.461 171.895 188.837L170.833 190.736C174.02 190.525 181.669 183.14 184.431 173.646C189.106 157.821 190.806 150.437 188.681 132.714C188.469 131.026 187.619 125.118 184.856 118.999C180.819 109.505 175.082 100.432 174.445 98.5334C172.957 95.5796 171.257 82.4982 171.045 73.8477Z" fill="#EFE2C3"/>
<path d="M173.596 60.3433C173.171 67.9389 173.171 73.8466 174.446 79.5433C175.933 85.662 184.007 94.5236 187.407 104.651C193.782 124.062 192.082 149.381 187.62 169.003C185.92 175.966 177.845 186.093 169.559 189.258L175.508 190.735C178.695 190.524 187.195 182.717 190.594 173.856C195.906 159.719 196.969 143.051 194.844 125.328C194.632 123.64 191.869 108.449 189.107 102.119C185.282 92.6247 179.12 85.873 176.995 79.9653C175.296 75.5345 174.658 63.7191 175.721 61.3982L173.596 60.3433Z" fill="#EFE2C3"/>
<path d="M8.07434 18.5664H123.027C127.277 18.5664 131.102 22.1532 131.102 26.584V60.3423C131.102 64.7731 127.277 68.3599 123.027 68.3599H99.4419C94.1298 68.3599 91.7925 71.3138 91.7925 74.6896V185.037C91.7925 188.835 88.8178 191.578 85.2056 191.578H46.1088C42.4965 191.578 39.7343 188.835 39.7343 185.037V73.6347C39.7343 70.2588 36.547 68.1489 34.2097 68.1489H8.07434C3.61221 68.1489 0 64.5621 0 60.1313V26.373C0 22.1532 3.61221 18.5664 8.07434 18.5664Z" fill="#EFE2C3"/>
<path d="M302.999 63.2959H313.198C317.023 63.2959 319.998 66.2497 319.998 69.8366V105.916C319.998 110.558 320.21 112.456 314.473 112.456C303.212 112.456 298.112 118.364 298.112 124.905V185.881C298.112 188.624 295.35 191.156 292.163 191.156H255.616C252.428 191.156 249.666 188.835 249.666 185.881V116.465C249.666 115.199 249.666 113.511 249.878 112.456C251.791 86.7157 272.189 66.2498 297.9 63.5069C298.537 63.5069 301.512 63.2959 302.999 63.2959Z" fill="#EFE2C3"/>
<path d="M216.093 97.6878C209.931 92.2021 202.282 87.5603 194.208 83.1295C190.595 81.2306 179.546 72.58 183.371 60.3427L155.536 48.9492L153.623 50.4261C162.973 67.0943 158.085 75.9559 153.411 78.9097C144.062 85.2394 130.463 93.257 123.876 100.22C110.914 113.512 107.09 126.171 108.365 142.629C109.639 163.938 125.151 181.662 146.186 188.624C155.323 191.578 163.822 192 173.172 192C188.258 192 203.982 187.991 215.243 178.708C227.355 168.791 234.367 153.811 234.367 138.409C234.367 123.007 227.78 108.237 216.093 97.6878ZM212.056 175.543C201.644 183.982 182.946 189.89 172.959 189.468C161.91 188.835 151.074 187.147 141.512 182.506C124.726 174.488 113.677 156.976 112.827 142.84C111.339 113.934 125.363 105.705 138.325 95.1559C145.549 89.2482 155.748 86.2944 161.485 75.7449C162.548 73.424 163.185 68.3603 161.91 63.0855C161.273 61.1866 158.723 54.8569 157.66 53.38L178.484 62.4525C175.934 71.9471 183.796 81.8636 190.17 85.4504C196.545 89.0372 206.532 95.7889 212.694 101.275C223.53 110.769 229.055 124.272 229.055 138.409C229.055 152.545 223.105 166.47 212.056 175.543Z" fill="#EFE2C3"/>
</svg>
